<svg xmlns="http://www.w3.org/2000/svg" version="1.1" xmlns:xlink="http://www.w3.org/1999/xlink" xmlns:svgjs="http://svgjs.dev/svgjs" width="476.98715" height="460.74924"><svg version="1.1" id="SvgjsSvg1078" width="476.98715" height="460.74924" viewBox="0 0 476.98715 460.74924" xmlns="http://www.w3.org/2000/svg" xmlns:svg="http://www.w3.org/2000/svg">
  <defs id="SvgjsDefs1077"></defs>
  <g id="SvgjsG1076" transform="translate(-276.04361,-203.98811)">
    <rect style="fill:#ffffff;fill-opacity:1;stroke-width:0.932071" id="SvgjsRect1075" width="476.98712" height="460.74927" x="276.04361" y="203.98811"></rect>
    <path style="opacity:1;fill:#000000" d="m 459.5,641.92406 c -20.09466,-0.54364 -26.66782,-1.07946 -33.5,-2.7308 -4.675,-1.12995 -12.55,-3.48358 -17.5,-5.2303 -4.95,-1.74671 -13.5961,-5.3389 -19.21356,-7.98264 -5.61745,-2.64373 -14.11708,-7.35124 -18.88805,-10.46112 -4.77098,-3.10987 -11.64988,-8.03505 -15.28645,-10.94483 -3.63656,-2.90978 -9.98713,-8.84188 -14.11237,-13.18244 -4.12523,-4.34056 -9.85308,-11.04193 -12.72854,-14.89193 -2.87546,-3.85 -7.46755,-11.05 -10.20464,-16 -2.73709,-4.95 -6.7704,-13.32183 -8.96291,-18.60406 -2.19251,-5.28224 -4.88953,-13.15724 -5.99339,-17.5 C 302.00623,520.05317 300.43735,513.125 299.62368,509 298.81002,504.875 297.66183,497.71595 297.07215,493.091 296.42581,488.02172 296,463.13931 296,430.44037 c 0,-49.16045 0.18209,-55.3048 1.94386,-65.591 1.06913,-6.24215 2.61238,-13.82437 3.42944,-16.84937 0.81707,-3.025 2.24125,-7.96852 3.16484,-10.9856 0.9236,-3.01708 3.6974,-9.99208 6.16399,-15.5 2.4666,-5.50792 8.22645,-15.6394 12.79968,-22.5144 4.57322,-6.875 12.44139,-16.884 17.48483,-22.24221 5.04343,-5.35822 12.84716,-12.69705 17.34162,-16.30852 4.49446,-3.61147 12.49102,-9.18612 17.77014,-12.38811 5.27912,-3.20199 13.89549,-7.65772 19.1475,-9.90162 5.252,-2.2439 14.20772,-5.46494 19.9016,-7.15785 5.69387,-1.69291 13.9525,-3.78272 18.3525,-4.64401 6.61839,-1.29554 19.97568,-1.65186 77.34339,-2.06322 50.05106,-0.35889 71.61268,-0.17159 77.5,0.67322 4.48614,0.64375 12.57339,2.27964 17.97167,3.63531 5.39828,1.35568 14.39828,4.2854 20,6.5105 5.60172,2.22511 14.23494,6.28115 19.18494,9.01343 4.95,2.73228 12.43943,7.53397 16.64317,10.67043 4.20374,3.13646 10.11064,7.83797 13.12644,10.44781 3.0158,2.60983 8.79077,8.59799 12.83326,13.30702 4.04249,4.70902 10.61712,13.33067 14.61028,19.15923 3.99317,5.82855 9.25111,14.69039 11.68432,19.69298 2.43321,5.00258 5.77082,12.94611 7.41691,17.65228 1.6461,4.70616 3.91875,12.82997 5.05034,18.0529 1.13159,5.22293 2.52457,14.42243 3.09552,20.44333 0.57095,6.02091 1.03663,33.6721 1.03484,61.4471 -0.003,48.57623 -0.0983,51.15338 -2.49759,67.65158 -1.97035,13.54847 -3.52343,20.19489 -7.39301,31.63836 -2.69426,7.96773 -7.03006,18.47452 -9.63511,23.34842 -2.60505,4.8739 -7.35308,12.68664 -10.55119,17.36164 -3.19811,4.675 -9.32552,12.15865 -13.61646,16.63034 -4.29095,4.47168 -11.62672,11.01803 -16.30172,14.54743 -4.675,3.52941 -10.59242,7.84886 -13.14983,9.59879 -2.5574,1.74992 -9.5324,5.63455 -15.5,8.63251 -5.96759,2.99795 -15.91395,7.25584 -22.103,9.46197 -6.18906,2.20612 -16.76406,4.97837 -23.5,6.16055 -11.30113,1.98339 -16.10947,2.16562 -62.24717,2.35912 -27.5,0.11533 -61.25,-0.0947 -75,-0.46665 z m 137.90459,-16.5603 c 4.37059,-0.82908 11.98785,-2.81734 16.92726,-4.41836 4.9394,-1.60101 12.08203,-4.48647 15.8725,-6.41212 3.79047,-1.92565 10.01412,-5.32475 13.83034,-7.55354 3.81621,-2.22879 10.50778,-6.74182 14.87013,-10.02895 4.36236,-3.28714 11.83125,-10.11924 16.59754,-15.18244 4.76629,-5.06321 10.84876,-12.1205 13.51659,-15.68287 2.66783,-3.56237 7.55399,-11.90143 10.85813,-18.53126 3.30414,-6.62982 7.34438,-16.55422 8.97831,-22.05422 1.63393,-5.5 3.24093,-11.22741 3.57112,-12.72758 0.49764,-2.26098 0.21314,-2.81545 -1.66309,-3.24123 -1.24488,-0.28251 -70.43842,-0.6301 -153.76342,-0.77243 -83.325,-0.14232 -166.8,-0.0758 -185.5,0.14779 -18.7,0.22361 -39.43042,0.67361 -46.0676,1 l -12.06759,0.59345 2.81754,10 c 1.58047,5.6094 5.64846,15.70777 9.26522,23 3.54622,7.15 9.47921,17.275 13.18441,22.5 3.70521,5.225 10.71844,13.42573 15.58496,18.22385 4.86653,4.79811 13.15446,11.72617 18.41763,15.39569 5.26317,3.66951 14.30619,9.07863 20.0956,12.02026 5.78942,2.94163 14.81547,6.7224 20.0579,8.4017 5.24243,1.6793 12.72225,3.76697 16.62181,4.63927 4.28866,0.95934 15.38768,1.88941 28.09012,2.35389 11.55,0.42233 45.96557,0.55832 76.47904,0.3022 43.71019,-0.36688 57.16475,-0.78544 63.42555,-1.9731 z M 414.05412,546.28999 c -16.26407,-0.27981 -19.74107,-0.6017 -21.25,-1.96726 C 391.61806,543.24936 391,541.27002 391,538.54501 c 0,-2.27975 0.54,-4.68501 1.2,-5.34501 0.89026,-0.89026 10.78778,-1.2 38.34501,-1.2 34.71549,0 37.25326,0.11961 38.8,1.82874 0.96636,1.06782 1.65499,3.51342 1.65499,5.87756 0,2.54289 -0.61414,4.55928 -1.65116,5.42126 -1.25059,1.03948 -5.79945,1.38755 -18.75,1.43471 -9.40436,0.0342 -25.84948,-0.0883 -36.54472,-0.27228 z M 544,545.24118 c -1.375,-0.22908 -3.5125,-1.3555 -4.75,-2.50316 -1.2375,-1.14765 -2.25,-3.15366 -2.25,-4.45779 0,-1.30413 1.10455,-3.47568 2.45455,-4.82568 2.45454,-2.45455 2.45454,-2.45455 47,-2.45455 43.94719,0 44.57371,0.0283 46.64962,2.10417 1.61709,1.61709 1.95869,2.83155 1.47569,5.24652 -0.34566,1.7283 -1.40503,3.87874 -2.35417,4.77874 -1.52544,1.4465 -6.59936,1.68813 -43.72569,2.08232 -23.1,0.24526 -43.125,0.25851 -44.5,0.0294 z M 374.00067,493.27394 c -3.7e-4,-0.67434 4.16183,-5.8234 9.24933,-11.44236 5.0875,-5.61897 14.41288,-15.86724 20.72307,-22.77394 6.31019,-6.9067 14.66422,-15.93264 18.56453,-20.05764 3.9003,-4.125 10.84917,-11.55 15.44194,-16.5 4.59276,-4.95 9.62623,-10.26031 11.18547,-11.80069 1.55924,-1.54037 2.83499,-2.98909 2.83499,-3.21936 0,-0.23027 -2.67026,-3.08066 -5.93391,-6.33419 l -5.93391,-5.91551 -17.81609,18.01918 c -9.79885,9.91054 -26.85867,27.07124 -37.9107,38.13487 -11.05204,11.06364 -24.65177,25.01683 -30.22163,31.00711 -5.56985,5.99027 -9.95711,11.16527 -9.74947,11.5 0.20765,0.33472 6.94518,0.60859 14.97229,0.60859 10.85754,0 14.59458,-0.31395 14.59409,-1.22606 z M 637,494.16467 c 0,-0.45943 -4.87559,-5.97193 -10.83464,-12.25 C 620.20631,475.6366 613.81994,468.7 611.97343,466.5 c -1.84652,-2.2 -9.01095,-9.85 -15.92096,-17 -6.91001,-7.15 -22.43756,-23.35 -34.50567,-36 -12.06811,-12.65 -27.73821,-28.85 -34.82246,-36 l -12.88044,-13 -16.95519,17.5 c -9.32535,9.625 -29.42773,30.56707 -44.67195,46.53793 C 436.97254,444.50878 417.525,465.33464 409,474.8176 c -8.525,9.48297 -15.66019,17.70896 -15.85597,18.27999 -0.24448,0.71305 17.60886,0.90148 57,0.60161 31.54578,-0.24015 86.15597,-0.13003 121.35597,0.24471 35.2,0.37475 64.3375,0.76567 64.75,0.86872 0.4125,0.10305 0.75,-0.18853 0.75,-0.64796 z m 47,-0.058 c 0,-0.49132 -7.3125,-8.44921 -16.25,-17.68419 -8.9375,-9.23499 -30.3582,-30.88301 -47.60156,-48.1067 -17.24335,-17.2237 -31.86835,-31.31013 -32.5,-31.30319 -0.63164,0.007 -3.25547,2.41545 -5.83072,5.35224 l -4.68229,5.33962 7.58783,8.39776 c 4.17331,4.61877 17.30534,18.53521 29.18229,30.92542 11.87695,12.39021 26.20695,27.62154 31.84445,33.8474 5.6375,6.22586 10.25,11.71206 10.25,12.19156 0,0.4795 5.5125,1.01337 12.25,1.18638 6.7375,0.17301 13.0375,0.41186 14,0.53078 0.9625,0.11892 1.75,-0.18577 1.75,-0.67708 z m -358.21383,-1.68909 c 0.48706,-0.87032 6.24921,-7.05782 12.80478,-13.75 C 345.14652,471.97542 363.53958,453 379.46441,436.5 c 15.92482,-16.5 34.80552,-35.77532 41.95709,-42.83404 7.15158,-7.05873 14.27988,-13.49442 15.84066,-14.30153 1.56233,-0.80791 3.7601,-1.17475 4.88983,-0.81619 1.12862,0.35821 6.13676,4.4314 11.1292,9.05153 4.99244,4.62012 9.5023,8.40023 10.02191,8.40023 0.51962,0 2.78885,-2.1375 5.04274,-4.75 2.25389,-2.6125 9.51062,-10.31238 16.12607,-17.11085 6.61545,-6.79846 14.93693,-15.25157 18.49218,-18.78468 3.55525,-3.53311 7.42884,-6.66597 8.60797,-6.96191 1.17914,-0.29595 3.8953,0.16936 6.03591,1.03401 2.75446,1.11259 10.48484,8.32687 26.44837,24.68257 l 22.55634,23.11049 7.94366,-7.69299 c 4.36901,-4.23115 8.93787,-8.37033 10.15302,-9.1982 1.49702,-1.0199 3.22646,-1.28181 5.36396,-0.81234 2.43899,0.5357 13.64281,11.27437 49.38884,47.33839 25.42883,25.65503 50.24005,51.22329 55.13604,56.81836 8.9018,10.17286 8.9018,10.17286 15.03837,10.25 l 6.13658,0.0772 0.36342,-17.25 c 0.19989,-9.4875 0.0874,-37.725 -0.24989,-62.75 -0.56422,-41.85777 -0.78939,-46.29707 -2.81288,-55.45724 -1.20975,-5.47649 -4.22579,-15.37649 -6.7023,-22 -2.47651,-6.62352 -6.36564,-15.54106 -8.64252,-19.81676 -2.27687,-4.27571 -7.06668,-11.70071 -10.64402,-16.5 -3.57734,-4.7993 -10.79741,-13.0151 -16.0446,-18.25732 -5.63933,-5.63399 -13.83379,-12.41116 -20.04036,-16.57425 -5.775,-3.8736 -13.54239,-8.72176 -17.26087,-10.77369 -3.71847,-2.05193 -11.59347,-5.5602 -17.5,-7.79616 -5.90652,-2.23597 -15.46413,-4.97741 -21.23913,-6.09211 -9.7374,-1.87952 -15.35411,-2.05739 -77.3351,-2.44908 -56.26098,-0.35555 -68.83884,-0.17616 -79.5,1.13387 -7.69784,0.9459 -16.39071,2.77766 -22.1649,4.67059 -5.225,1.71288 -14.01434,5.24123 -19.53186,7.84077 -5.51752,2.59954 -14.06752,7.45213 -19,10.78354 -4.93248,3.3314 -11.66814,8.40569 -14.96814,11.27619 -3.3,2.8705 -7.73942,7.08492 -9.86537,9.36537 -2.12596,2.28045 -6.00484,6.62128 -8.61975,9.64628 -2.6149,3.025 -7.23417,9.325 -10.26504,14 -3.03086,4.675 -7.35844,12.19051 -9.61684,16.70113 -2.2584,4.51062 -5.9201,14.18562 -8.13712,21.5 -2.24576,7.40921 -4.45837,17.28469 -4.99608,22.29887 -0.53083,4.95 -0.96799,33.75 -0.97147,64 -0.003,30.25 0.27261,56.6875 0.61352,58.75 0.61983,3.75 0.61983,3.75 7.4393,3.75 5.17982,0 7.03239,-0.38047 7.70502,-1.58239 z m 92.16439,-149.72019 c -2.50219,-0.70752 -6.1712,-2.2887 -8.15336,-3.51374 -1.98216,-1.22504 -5.16806,-3.95865 -7.07977,-6.07469 -1.91171,-2.11603 -4.43019,-6.39809 -5.59663,-9.51567 -1.49978,-4.00852 -2.11437,-7.92675 -2.09884,-13.38083 0.0159,-5.58485 0.58417,-8.9539 2.05989,-12.21249 1.12085,-2.475 4.25769,-6.5864 6.97075,-9.13645 2.71306,-2.55005 7.06732,-5.63978 9.67614,-6.86607 3.49986,-1.64512 6.58199,-2.2287 11.75728,-2.22612 5.12172,0.003 8.34298,0.60708 11.94017,2.2408 2.7094,1.23052 7.0485,4.22248 9.64244,6.64881 2.61551,2.4465 5.75739,6.73386 7.05362,9.62527 1.85506,4.13791 2.33864,6.96772 2.34353,13.71376 0.005,7.3313 -0.37,9.21725 -2.72972,13.71657 -1.50473,2.86912 -4.32596,6.80666 -6.26939,8.7501 -1.94344,1.94343 -5.85282,4.70879 -8.68752,6.14525 -3.12452,1.58331 -7.34437,2.76139 -10.71658,2.99181 -3.05941,0.20905 -7.60982,-0.19879 -10.11201,-0.90631 z m 13.32677,-13.75755 c 2.07754,-0.57693 5.31256,-2.39692 7.18895,-4.04441 1.87638,-1.64748 3.94159,-4.6013 4.58935,-6.56402 0.64776,-1.96273 0.94979,-5.59104 0.67117,-8.06291 -0.30287,-2.68707 -1.66225,-6.13864 -3.38053,-8.58346 -1.58068,-2.24903 -4.44002,-5.00377 -6.3541,-6.12165 -2.43833,-1.42406 -5.27808,-2.03714 -9.48615,-2.04797 -4.76084,-0.0122 -6.70642,0.48409 -9.38435,2.39403 -2.00804,1.43216 -4.38836,4.61566 -5.86845,7.84859 -1.8685,4.08134 -2.35393,6.45443 -1.94458,9.50634 0.30004,2.23698 1.82186,5.90511 3.38182,8.15141 1.59695,2.29957 4.7801,5.06733 7.2848,6.33418 2.44669,1.2375 5.59067,2.24749 6.98663,2.24442 1.39596,-0.003 4.23791,-0.47761 6.31544,-1.05455 z" id="SvgjsPath1074"></path>
  </g>
</svg><style>@media (prefers-color-scheme: light) { :root { filter: none; } }
@media (prefers-color-scheme: dark) { :root { filter: none; } }
</style></svg>